<?xml version="1.0" encoding="UTF-8"?>
<svg width="160" height="30" viewBox="0 0 160 30" fill="none" xmlns="http://www.w3.org/2000/svg">
  <path d="M10 5H25C27.7614 5 30 7.23858 30 10V20C30 22.7614 27.7614 25 25 25H10V5ZM15 8V22H25V8H15Z" fill="#1f2937"/>
  <path d="M35 5H50V8H40V14H48V17H40V22H50V25H35V5Z" fill="#1f2937"/>
  <path d="M55 5H70C72.7614 5 75 7.23858 75 10V20C75 22.7614 72.7614 25 70 25H55V5ZM60 8V22H70V8H60Z" fill="#1f2937"/>
  <path d="M80 5H95C97.7614 5 100 7.23858 100 10V20C100 22.7614 97.7614 25 95 25H80V5ZM85 8V22H95V8H85Z" fill="#1f2937"/>
  <path d="M105 5H120C122.761 5 125 7.23858 125 10V20C125 22.7614 122.761 25 120 25H105V5ZM110 8V22H120V8H110Z" fill="#1f2937"/>
  <path d="M130 5H145C147.761 5 150 7.23858 150 10V20C150 22.7614 147.761 25 145 25H130V5ZM135 8V22H145V8H135Z" fill="#1f2937"/>
  <path d="M155 5H170V8H160V14H168V17H160V22H170V25H155V5Z" fill="#1f2937"/>
</svg> 