<?xml version="1.0" encoding="UTF-8"?>
<svg width="180" height="30" viewBox="0 0 180 30" fill="none" xmlns="http://www.w3.org/2000/svg">
  <path d="M10 5H25V8H15V14H23V17H15V25H10V5Z" fill="#1f2937"/>
  <path d="M30 5H45V8H35V14H43V17H35V22H45V25H30V5Z" fill="#1f2937"/>
  <path d="M50 5H65C67.7614 5 70 7.23858 70 10V20C70 22.7614 67.7614 25 65 25H50V5ZM55 8V22H65V8H55Z" fill="#1f2937"/>
  <path d="M75 5H90C92.7614 5 95 7.23858 95 10V12C95 14.7614 92.7614 17 90 17H80V25H75V5ZM80 8V14H90V10H80V8Z" fill="#1f2937"/>
  <path d="M100 5H115V8H105V14H113V17H105V22H115V25H100V5Z" fill="#1f2937"/>
  <path d="M120 5H135C137.761 5 140 7.23858 140 10V20C140 22.7614 137.761 25 135 25H120V5ZM125 8V22H135V8H125Z" fill="#1f2937"/>
  <path d="M145 5H160V8H150V14H158V17H150V22H160V25H145V5Z" fill="#1f2937"/>
  <path d="M165 5H180V8H170V14H178V17H170V25H165V5Z" fill="#1f2937"/>
</svg> 