<?xml version="1.0" encoding="UTF-8"?>
<svg width="160" height="30" viewBox="0 0 160 30" fill="none" xmlns="http://www.w3.org/2000/svg">
  <path d="M10 5H25V8H15V14H23V17H15V22H25V25H10V5Z" fill="#1f2937"/>
  <path d="M30 5H45V8H35V14H43V17H35V22H45V25H30V5Z" fill="#1f2937"/>
  <path d="M50 5H65C67.7614 5 70 7.23858 70 10V20C70 22.7614 67.7614 25 65 25H50V5ZM55 8V22H65V8H55Z" fill="#1f2937"/>
  <path d="M75 5H90C92.7614 5 95 7.23858 95 10V20C95 22.7614 92.7614 25 90 25H75V5ZM80 8V22H90V8H80Z" fill="#1f2937"/>
  <path d="M100 5H115C117.761 5 120 7.23858 120 10V20C120 22.7614 117.761 25 115 25H100V5ZM105 8V22H115V8H105Z" fill="#1f2937"/>
  <path d="M125 5H140C142.761 5 145 7.23858 145 10V20C145 22.7614 142.761 25 140 25H125V5ZM130 8V22H140V8H130Z" fill="#1f2937"/>
  <path d="M150 5H165V8H155V25H150V5Z" fill="#1f2937"/>
</svg> 