<?xml version="1.0" encoding="UTF-8"?>
<svg width="40" height="40" viewBox="0 0 40 40" fill="none" xmlns="http://www.w3.org/2000/svg">
  <path d="M32.5 15V25C32.5 29.1421 29.1421 32.5 25 32.5H15C10.8579 32.5 7.5 29.1421 7.5 25V15C7.5 10.8579 10.8579 7.5 15 7.5H25C29.1421 7.5 32.5 10.8579 32.5 15Z" stroke="#1f2937" stroke-width="2"/>
  <path d="M25 17.5V15C25 13.6193 23.8807 12.5 22.5 12.5H17.5C16.1193 12.5 15 13.6193 15 15V25C15 26.3807 16.1193 27.5 17.5 27.5H22.5C23.8807 27.5 25 26.3807 25 25V22.5" stroke="#1f2937" stroke-width="2"/>
  <path d="M25 20C26.3807 20 27.5 18.8807 27.5 17.5C27.5 16.1193 26.3807 15 25 15" stroke="#1f2937" stroke-width="2"/>
</svg> 